<svg width="32" height="25" viewBox="0 0 32 25" fill="none" xmlns="http://www.w3.org/2000/svg">
<path d="M25 19.3004C28.3689 18.9659 31 16.1236 31 12.6667C31 8.6561 27.3156 5.50181 23.376 6.06823C23.3718 6.06884 23.3675 6.06665 23.3656 6.0628C21.86 3.06064 18.754 1 15.1667 1C10.388 1 6.46346 4.65653 6.03819 9.32429C6.03772 9.32946 6.03333 9.33345 6.02814 9.33344C3.29317 9.32853 1 11.5893 1 14.3333C1 17.0948 3.23858 19.3333 6 19.3333H7" stroke="white" stroke-width="1.5" stroke-linecap="round"/>
<path d="M12.25 19.75L15.6464 23.1464C15.8417 23.3417 16.1583 23.3417 16.3535 23.1464L19.75 19.75" stroke="white" stroke-width="1.5" stroke-linecap="round"/>
<path d="M16 22.0002L16 13.0002" stroke="white" stroke-width="1.5" stroke-linecap="round"/>
</svg>
