<svg width="81" height="81" viewBox="0 0 81 81" fill="none" xmlns="http://www.w3.org/2000/svg">
<path d="M75.0312 -0.00787191H5.96875C4.40177 -0.0238192 2.89246 0.582509 1.772 1.67807C0.651541 2.77363 0.0114528 4.26893 -0.0078125 5.83588V75.1773C0.0149368 76.7419 0.656556 78.2338 1.77664 79.3265C2.89672 80.4192 4.40404 81.0237 5.96875 81.0078H75.0312C76.5983 81.0202 78.1066 80.4118 79.2265 79.3156C80.3464 78.2193 80.9868 76.7244 81.0078 75.1574V5.81596C80.9799 4.25361 80.3364 2.76543 79.2173 1.6749C78.0981 0.584369 76.5938 -0.0203707 75.0312 -0.00787191V-0.00787191Z" fill="#0076B2"/>
<path d="M11.9851 30.3597H24.0112V69.0547H11.9851V30.3597ZM18.0015 11.1019C19.3808 11.1019 20.7292 11.511 21.876 12.2775C23.0227 13.044 23.9164 14.1333 24.444 15.4078C24.9715 16.6823 25.1092 18.0846 24.8397 19.4373C24.5701 20.7901 23.9053 22.0325 22.9295 23.0073C21.9537 23.9822 20.7107 24.6458 19.3577 24.9141C18.0047 25.1824 16.6025 25.0433 15.3285 24.5146C14.0546 23.9858 12.9661 23.0911 12.2007 21.9436C11.4353 20.796 11.0275 19.4473 11.0288 18.0679C11.0306 16.2198 11.766 14.448 13.0734 13.1418C14.3808 11.8356 16.1534 11.1019 18.0015 11.1019ZM31.555 30.3597H43.0831V35.6722H43.2425C44.8495 32.6308 48.7675 29.4234 54.6179 29.4234C66.7968 29.3969 69.0546 37.4121 69.0546 47.8047V69.0547H57.0284V50.2285C57.0284 45.7461 56.9487 39.9754 50.7796 39.9754C44.6105 39.9754 43.5612 44.8629 43.5612 49.9363V69.0547H31.555V30.3597Z" fill="white"/>
</svg>
