<svg width="72" height="61" viewBox="0 0 72 61" fill="none" xmlns="http://www.w3.org/2000/svg">
<path d="M39.4541 39.4716C39.5202 39.6039 39.5009 39.7389 39.399 39.8739C39.2998 40.0061 39.1675 40.0722 39.0022 40.0722H32.0866C31.8551 40.0722 31.7036 39.9717 31.6347 39.7692L23.7217 17.4297L15.9078 39.7692C15.8747 39.9717 15.7067 40.0722 15.4063 40.0722H8.54578C8.31021 40.0722 8.15041 40.0061 8.06637 39.8739C7.98647 39.7389 7.9782 39.6039 8.04433 39.4716L23.2202 0.303077C23.2891 0.101944 23.4572 0 23.7217 0C23.9889 0 24.157 0.101944 24.2231 0.303077L39.4541 39.4716Z" fill="#774DFF"/>
<path d="M67.4541 20.6007C67.5202 20.4684 67.5009 20.3334 67.399 20.1984C67.2998 20.0662 67.1675 20 67.0022 20H60.0866C59.8551 20 59.7036 20.1006 59.6347 20.3031L51.7217 42.6426L43.9078 20.3031C43.8747 20.1006 43.7067 20 43.4063 20H36.5458C36.3102 20 36.1504 20.0662 36.0664 20.1984C35.9865 20.3334 35.9782 20.4684 36.0443 20.6007L51.2202 59.7692C51.2891 59.9703 51.4572 60.0723 51.7217 60.0723C51.9889 60.0723 52.157 59.9703 52.2231 59.7692L67.4541 20.6007Z" fill="#774DFF"/>
<path d="M1 32L71 32" stroke="#FF802E" stroke-width="2" stroke-linecap="round"/>
<path d="M28.5312 31H36.168L36.9279 33H29.2383L28.5312 31Z" fill="#774DFF"/>
<path d="M63.3965 31H55.8435L55.1465 33H62.6449L63.3965 31Z" fill="#774DFF"/>
</svg>
