<svg width="20" height="20" viewBox="0 0 20 20" fill="none" xmlns="http://www.w3.org/2000/svg">
<path d="M14.3994 10.6531L14.1062 10.3811L14.3994 10.6531ZM9.34704 5.60069L9.61904 5.89397L9.34704 5.60069ZM16.7983 4.55355L17.195 4.60543L16.7983 4.55355ZM15.4466 3.20179L15.4984 3.59841L15.4466 3.20179ZM5.96158 10.54L6.32074 10.7161L5.96158 10.54ZM9.46014 14.0385L9.28406 13.6794L9.28406 13.6794L9.46014 14.0385ZM7.1037 8.85449C6.94749 8.69828 6.69423 8.69828 6.53802 8.85449C6.38181 9.0107 6.38181 9.26397 6.53802 9.42018L7.1037 8.85449ZM10.5799 13.4621C10.7361 13.6183 10.9894 13.6183 11.1456 13.4621C11.3018 13.3059 11.3018 13.0526 11.1456 12.8964L10.5799 13.4621ZM5.8406 14.7252C5.99681 14.569 5.99681 14.3157 5.8406 14.1595C5.68439 14.0033 5.43113 14.0033 5.27492 14.1595L5.8406 14.7252ZM3.25396 16.1805C3.09775 16.3367 3.09775 16.59 3.25396 16.7462C3.41017 16.9024 3.66343 16.9024 3.81964 16.7462L3.25396 16.1805ZM4.32488 13.2095C4.48109 13.0533 4.48109 12.8 4.32488 12.6438C4.16867 12.4876 3.91541 12.4876 3.7592 12.6438L4.32488 13.2095ZM2.74872 13.6543C2.59251 13.8105 2.59251 14.0638 2.74872 14.22C2.90493 14.3762 3.15819 14.3762 3.3144 14.22L2.74872 13.6543ZM7.35632 16.2409C7.51253 16.0847 7.51253 15.8314 7.35632 15.6752C7.20011 15.519 6.94685 15.519 6.79064 15.6752L7.35632 16.2409ZM5.78016 16.6857C5.62395 16.8419 5.62395 17.0952 5.78016 17.2514C5.93637 17.4076 6.18963 17.4076 6.34584 17.2514L5.78016 16.6857ZM8.89235 16.5644L9.28833 16.5078L8.89235 16.5644ZM12.5806 14.0887L12.9766 14.0321L12.5806 14.0887ZM3.43574 11.1078L3.49231 10.7118L3.49231 10.7118L3.43574 11.1078ZM5.91141 7.41954L5.85484 7.81552L5.85484 7.81552L5.91141 7.41954ZM8.19188 13.4794L6.52072 11.8082L5.95504 12.3739L7.62619 14.0451L8.19188 13.4794ZM14.1062 10.3811C12.7347 11.8598 10.5178 13.0745 9.28406 13.6794L9.63622 14.3977C10.8782 13.7888 13.213 12.5205 14.6927 10.9251L14.1062 10.3811ZM6.32074 10.7161C6.92558 9.48232 8.14036 7.2654 9.61904 5.89397L9.07503 5.30741C7.47961 6.78711 6.21131 9.12189 5.60242 10.3639L6.32074 10.7161ZM16.4017 4.50168C16.1842 6.16498 15.6037 8.76639 14.1062 10.3811L14.6927 10.9251C16.3733 9.11312 16.9749 6.28774 17.195 4.60543L16.4017 4.50168ZM9.61904 5.89397C11.2337 4.3964 13.8351 3.81595 15.4984 3.59841L15.3947 2.80516C13.7124 3.02519 10.887 3.62686 9.07503 5.30741L9.61904 5.89397ZM17.195 4.60543C17.3342 3.54079 16.4593 2.66592 15.3947 2.80516L15.4984 3.59841C16.0421 3.52731 16.4728 3.95806 16.4017 4.50168L17.195 4.60543ZM6.52072 11.8082C6.22276 11.5103 6.14473 11.0751 6.32074 10.7161L5.60242 10.3639C5.26647 11.0492 5.43061 11.8495 5.95504 12.3739L6.52072 11.8082ZM7.62619 14.0451C8.15061 14.5695 8.95096 14.7337 9.63622 14.3977L9.28406 13.6794C8.92503 13.8554 8.48984 13.7774 8.19188 13.4794L7.62619 14.0451ZM6.53802 9.42018L10.5799 13.4621L11.1456 12.8964L7.1037 8.85449L6.53802 9.42018ZM5.27492 14.1595L3.25396 16.1805L3.81964 16.7462L5.8406 14.7252L5.27492 14.1595ZM3.7592 12.6438L2.74872 13.6543L3.3144 14.22L4.32488 13.2095L3.7592 12.6438ZM6.79064 15.6752L5.78016 16.6857L6.34584 17.2514L7.35632 16.2409L6.79064 15.6752ZM10.8326 6.58092C10.1183 7.2952 10.1183 8.45328 10.8326 9.16756L11.3982 8.60187C10.9964 8.20001 10.9964 7.54846 11.3982 7.1466L10.8326 6.58092ZM10.8326 9.16756C11.5468 9.88184 12.7049 9.88184 13.4192 9.16756L12.8535 8.60188C12.4517 9.00374 11.8001 9.00374 11.3982 8.60187L10.8326 9.16756ZM13.4192 9.16756C14.1335 8.45328 14.1335 7.2952 13.4192 6.58091L12.8535 7.1466C13.2554 7.54846 13.2554 8.20001 12.8535 8.60188L13.4192 9.16756ZM13.4192 6.58091C12.7049 5.86663 11.5468 5.86663 10.8326 6.58092L11.3982 7.1466C11.8001 6.74474 12.4517 6.74474 12.8535 7.1466L13.4192 6.58091ZM12.0957 14.4121L9.82208 16.6857L10.3878 17.2514L12.6613 14.9778L12.0957 14.4121ZM9.28833 16.5078L8.98518 14.3858L8.19322 14.4989L8.49637 16.6209L9.28833 16.5078ZM11.9825 12.7306L12.1846 14.1453L12.9766 14.0321L12.7745 12.6174L11.9825 12.7306ZM9.82208 16.6857C9.63881 16.869 9.32498 16.7644 9.28833 16.5078L8.49637 16.6209C8.62625 17.5301 9.73835 17.9008 10.3878 17.2514L9.82208 16.6857ZM12.6613 14.9778C12.9094 14.7298 13.0262 14.3794 12.9766 14.0321L12.1846 14.1453C12.1986 14.2433 12.1657 14.3421 12.0957 14.4121L12.6613 14.9778ZM5.02228 7.33879L2.7487 9.61237L3.31439 10.1781L5.58797 7.90448L5.02228 7.33879ZM3.37917 11.5038L5.50118 11.8069L5.61431 11.015L3.49231 10.7118L3.37917 11.5038ZM7.38265 7.22565L5.96798 7.02356L5.85484 7.81552L7.26952 8.01761L7.38265 7.22565ZM2.7487 9.61237C2.09929 10.2618 2.46999 11.3739 3.37917 11.5038L3.49231 10.7118C3.23573 10.6752 3.13112 10.3613 3.31439 10.1781L2.7487 9.61237ZM5.58797 7.90448C5.65797 7.83447 5.75684 7.80152 5.85484 7.81552L5.96798 7.02356C5.62071 6.97395 5.27034 7.09073 5.02228 7.33879L5.58797 7.90448Z" fill="white"/>
</svg>
