<svg width="24" height="24" viewBox="0 0 24 24" fill="none" xmlns="http://www.w3.org/2000/svg">
<path fill-rule="evenodd" clip-rule="evenodd" d="M7 2C4.23858 2 2 4.23858 2 7L2 17C2 19.7614 4.23858 22 7 22L17 22C19.7614 22 22 19.7614 22 17L22 7C22 4.23858 19.7614 2 17 2L7 2ZM12.75 9.81066L14.4697 11.5303C14.7626 11.8232 15.2374 11.8232 15.5303 11.5303C15.8232 11.2374 15.8232 10.7626 15.5303 10.4697L13.2374 8.17678C12.554 7.49336 11.446 7.49336 10.7626 8.17678L8.46967 10.4697C8.17678 10.7626 8.17678 11.2374 8.46967 11.5303C8.76256 11.8232 9.23744 11.8232 9.53033 11.5303L11.25 9.81066L11.25 16C11.25 16.4142 11.5858 16.75 12 16.75C12.4142 16.75 12.75 16.4142 12.75 16L12.75 9.81066Z" fill="white"/>
</svg>
