<svg width="80" height="80" viewBox="0 0 80 80" fill="none" xmlns="http://www.w3.org/2000/svg">
<path d="M68.1313 17.9L44.55 3.90002C43.1437 3.06877 41.5687 2.65002 40 2.65002C38.4312 2.65002 36.8563 3.06877 35.45 3.90627L11.8625 17.9063C9.05 19.575 7.3125 22.6625 7.3125 26.0063V54.0063C7.3125 57.35 9.04375 60.4375 11.8625 62.1063L35.4437 76.1063C36.85 76.9438 38.4188 77.3563 39.9938 77.3563C41.5625 77.3563 43.1375 76.9375 44.5437 76.1063L68.1313 62.1063C70.9438 60.4375 72.6813 57.3438 72.6813 54.0063V26C72.6813 22.6625 70.95 19.5688 68.1313 17.9ZM49.8688 61.6188L49.9062 63.6313C49.9062 63.875 49.75 64.15 49.5625 64.25L48.3688 64.9375C48.1813 65.0313 48.0188 64.9188 48.0188 64.675L48 62.6938C46.9813 63.1188 45.9437 63.2188 45.2875 62.9563C45.1625 62.9063 45.1063 62.725 45.1562 62.5125L45.5875 60.6938C45.625 60.55 45.7 60.4063 45.8 60.3188C45.8375 60.2813 45.875 60.2563 45.9125 60.2375C45.9813 60.2 46.05 60.1938 46.1062 60.2188C46.8187 60.4563 47.725 60.3438 48.6 59.9063C49.7125 59.3438 50.4563 58.2063 50.4438 57.0813C50.4313 56.0563 49.8813 55.6375 48.5375 55.625C46.825 55.6313 45.225 55.2938 45.2 52.7688C45.1812 50.6938 46.2563 48.5313 47.9688 47.1688L47.95 45.1375C47.95 44.8875 48.1 44.6125 48.2938 44.5125L49.45 43.775C49.6375 43.6813 49.8 43.8 49.8 44.0438L49.8188 46.075C50.6688 45.7375 51.4062 45.6438 52.075 45.8C52.2188 45.8375 52.2875 46.0375 52.225 46.2688L51.775 48.0688C51.7375 48.2063 51.6625 48.3438 51.5688 48.4313C51.5339 48.4664 51.4938 48.4959 51.45 48.5188C51.3875 48.55 51.3313 48.5563 51.275 48.55C50.9688 48.4813 50.2438 48.325 49.1 48.9C47.9 49.5063 47.4813 50.55 47.4875 51.325C47.5 52.25 47.9688 52.5313 49.6063 52.5563C51.7875 52.5938 52.725 53.5438 52.75 55.7375C52.7813 57.8875 51.6313 60.2063 49.8688 61.6188ZM66.3312 23.8063L44.0187 37.5875C41.2375 39.2125 39.1875 41.0375 39.1812 44.3938V71.8875C39.1812 73.8938 39.9938 75.1938 41.2375 75.575C40.8313 75.6438 40.4125 75.6938 40 75.6938C38.6938 75.6938 37.4062 75.3375 36.275 74.6688L12.6937 60.6688C10.3875 59.3 8.95625 56.7438 8.95625 54V26C8.95625 23.2563 10.3875 20.7 12.6937 19.3313L36.2812 5.33127C37.4125 4.66252 38.7 4.30627 40.0063 4.30627C41.3125 4.30627 42.6 4.66252 43.7313 5.33127L67.3188 19.3313C69.2625 20.4875 70.575 22.4813 70.9438 24.725C70.15 23.0563 68.3875 22.6063 66.3312 23.8063Z" fill="#293138"/>
<path d="M61.9499 56.7063L56.0749 60.2188C55.9187 60.3125 55.8062 60.4125 55.8062 60.6V62.1375C55.8062 62.325 55.9312 62.4063 56.0874 62.3125L62.0499 58.6875C62.2062 58.5938 62.2312 58.425 62.2312 58.2375V56.8813C62.2312 56.6938 62.1062 56.6188 61.9499 56.7063Z" fill="#4FA847"/>
</svg>
