<svg width="100" height="100" viewBox="0 0 100 100" fill="none" xmlns="http://www.w3.org/2000/svg">
<path d="M91.7969 26.1719L92.0312 26.0156C91.5625 25.1562 90.8594 24.375 90.1562 23.9844L52.4219 2.26563C51.7969 1.875 50.9375 1.71875 50 1.71875C49.0625 1.71875 48.2031 1.95313 47.5781 2.26563L10.0781 24.0625C8.75 24.8437 7.8125 26.7969 7.8125 28.2812V71.7969C7.8125 72.6562 7.96875 73.5938 8.51562 74.4531L8.35937 74.5312C8.75 75.1562 9.29688 75.7031 9.84375 76.0156L47.5 97.8125C48.125 98.2031 48.9844 98.3594 49.9219 98.3594C50.8594 98.3594 51.7188 98.125 52.3438 97.8125L89.8438 76.0156C91.1719 75.2344 92.1094 73.2812 92.1094 71.7969V28.2031C92.1875 27.5781 92.1094 26.875 91.7969 26.1719ZM64.0625 51.5625V48.4375H67.9688V44.5312H71.875V48.4375H75.7812V51.5625H71.875V55.4688H67.9688V51.5625H64.0625ZM66.6406 40.625C63.3594 34.7656 57.1094 30.8594 50 30.8594C39.4531 30.8594 30.8594 39.4531 30.8594 50C30.8594 60.5469 39.4531 69.1406 50 69.1406C57.1094 69.1406 63.3594 65.2344 66.6406 59.4531L76.7188 65.3906C71.4062 74.6094 61.4062 80.8594 50 80.8594C32.9688 80.8594 19.1406 67.0312 19.1406 50C19.1406 32.9688 32.9688 19.1406 50 19.1406C61.4844 19.1406 71.4844 25.4688 76.7969 34.7656L66.6406 40.625ZM89.8438 51.5625H85.9375V55.4688H82.8125V51.5625H78.125V48.4375H82.8125V44.5312H85.9375V48.4375H89.8438V51.5625Z" fill="#9C033A"/>
</svg>
