<svg width="80" height="80" viewBox="0 0 80 80" fill="none" xmlns="http://www.w3.org/2000/svg">
<path d="M11.7584 71.3266L5.47461 0.844727H74.5246L68.2346 71.316L39.9577 79.1554L11.7584 71.3266Z" fill="#1572B6"/>
<path d="M40.0005 73.1639L62.8499 66.8289L68.2255 6.60767H40.0005V73.1639Z" fill="#33A9DC"/>
<path d="M40.0005 32.1429H51.4392L52.2292 23.291H40.0005V14.6466H61.6767L61.4692 16.966L59.3442 40.7872H40.0005V32.1429Z" fill="white"/>
<path d="M40.0516 54.593L40.0135 54.6042L30.3866 52.0048L29.771 45.1105H21.0947L22.3054 58.6836L40.0122 63.598L40.0516 63.5867V54.593Z" fill="#EBEBEB"/>
<path d="M50.7045 40.4219L49.6632 51.9981L40.022 54.6006V63.5944L57.7432 58.6831L57.8732 57.2225L59.377 40.4219H50.7045Z" fill="white"/>
<path d="M40.0297 14.6466V23.291H19.1497L18.9766 21.3485L18.5829 16.966L18.376 14.6466H40.0297ZM40.0004 32.1441V40.7885H30.4947L30.3216 38.846L29.9272 34.4635L29.721 32.1441H40.0004Z" fill="#EBEBEB"/>
</svg>
