<svg width="100" height="100" viewBox="0 0 100 100" fill="none" xmlns="http://www.w3.org/2000/svg">
<path d="M97.5002 40.7031C94.1408 38.75 89.6877 38.5156 85.9377 39.6094C85.4689 35.5469 82.8127 32.0312 79.6877 29.5312L78.4377 28.5156L77.3439 29.7656C75.2346 32.1875 74.6096 36.25 74.9221 39.375C75.1564 41.6406 75.8596 43.9844 77.2658 45.8594C76.1721 46.4844 75.0002 47.3437 73.9064 47.7344C71.7189 48.5156 69.297 49.2969 66.9533 49.2969H61.7189V38.2812H51.5627V18.75H39.8439V28.125H20.3127V38.2812H10.1564V49.2188H1.40643L1.25018 50.3906C0.859551 55.3906 1.48455 60.2344 3.59393 64.8438L4.4533 66.5625L4.53143 66.7188C10.7033 77.1875 21.4846 81.5625 33.2814 81.5625C56.0939 81.5625 74.9221 71.3281 83.5158 49.8438C89.2971 50.1562 95.2346 48.4375 98.0471 42.8906L98.7502 41.4844L97.5002 40.7031ZM21.8752 30.4688H29.6877V39.0625H21.8752V30.4688ZM32.1096 65C32.1096 66.3281 31.0158 67.4219 29.6877 67.4219C28.3596 67.4219 27.2658 66.3281 27.2658 65C27.2658 63.6719 28.3596 62.5781 29.6877 62.5781C31.0158 62.6562 32.1096 63.6719 32.1096 65ZM21.8752 40.625H29.6877V49.2188H21.8752V40.625ZM11.7189 40.625H20.3127V49.2188H11.7189V40.625ZM33.3596 79.8437C21.0158 79.7656 14.3752 75.625 8.90643 70.1563C10.5471 70.2344 12.1096 70.3125 13.5158 70.3125C14.7658 70.3125 16.0158 70.3125 17.1877 70.2344C20.2346 70.0781 22.8908 69.6875 25.0783 69.0625C26.8752 73.2031 30.1564 77.0312 36.0158 79.8437H33.3596ZM39.8439 49.2188H31.2502V40.625H39.8439V49.2188ZM39.8439 39.0625H31.2502V30.4688H39.8439V39.0625ZM50.0002 49.2188H41.4064V40.625H50.0002V49.2188ZM50.0002 39.0625H41.4064V30.4688H50.0002V39.0625ZM50.0002 28.9062H41.4064V20.3125H50.0002V28.9062ZM60.1564 49.2188H51.5627V40.625H60.1564V49.2188ZM30.3127 63.4375C30.1564 63.3594 29.9221 63.2812 29.6877 63.2812C28.7502 63.2812 27.9689 64.0625 27.9689 65C27.9689 65.9375 28.7502 66.7188 29.6877 66.7188C30.6252 66.7188 31.4064 65.9375 31.4064 65C31.4064 64.7656 31.3283 64.5312 31.2502 64.375C31.0939 64.6094 30.9377 64.7656 30.6252 64.7656C30.2346 64.7656 29.9221 64.4531 29.9221 64.0625C30.0002 63.75 30.1564 63.5156 30.3127 63.4375Z" fill="#019BC6"/>
</svg>
