<svg width="102" height="100" viewBox="0 0 102 100" fill="none" xmlns="http://www.w3.org/2000/svg">
<path d="M59.9062 0.234375C59.2031 0.234375 58.5 0.390625 57.875 0.625C59.2031 1.48438 59.9062 2.65625 60.2969 3.98437C60.2969 4.14062 60.375 4.29687 60.375 4.45312C60.375 4.60937 60.4531 4.76562 60.4531 4.92188C60.5312 7.1875 59.8281 7.5 59.3594 8.82812C58.5781 10.5469 58.8125 12.4219 59.75 13.9062C59.8281 14.0625 59.9062 14.2969 60.0625 14.4531C59.0469 7.89063 64.5156 6.95312 65.5312 4.92188C65.6094 3.125 64.125 1.95312 62.9531 1.09375C61.7812 0.390625 60.8438 0.234375 59.9062 0.234375ZM68.1094 1.64062C68.0312 2.26562 68.1094 2.10938 68.0312 2.42188C68.0312 2.65625 68.0312 2.89062 67.9531 3.125C67.875 3.35938 67.875 3.51562 67.7969 3.75C67.7188 3.98438 67.6406 4.14062 67.5625 4.375C67.4844 4.53125 67.4062 4.6875 67.3281 4.92188C67.25 5 67.1719 5.15625 67.0938 5.23437C67.0156 5.3125 67.0156 5.39062 66.9375 5.46875C66.7812 5.625 66.7031 5.85937 66.5469 6.01562L66.0781 6.48438C65.9219 6.64062 65.7656 6.79688 65.6094 6.875C65.0625 7.26562 64.4375 7.57812 63.8906 7.96875C63.7344 8.125 63.5 8.20312 63.3438 8.35938C63.1875 8.51562 63.0312 8.59375 62.875 8.75L62.4062 9.21875C62.25 9.375 62.0937 9.53125 62.0156 9.76562C61.8594 9.92188 61.7812 10.1562 61.625 10.3125C61.5469 10.5469 61.4687 10.7031 61.3125 10.9375C61.2344 11.1719 61.1562 11.3281 61.0781 11.5625C61 11.7969 60.9219 12.0312 60.9219 12.1875C60.9219 12.2656 60.9219 12.4219 60.8437 12.5C60.8437 12.5781 60.8438 12.7344 60.7656 12.8125V13.9062C60.7656 14.1406 60.7656 14.2969 60.8437 14.5313C60.8437 14.7656 60.9219 14.9219 61 15.1562C61.0781 15.3906 61.1562 15.5469 61.2344 15.7813C61.3125 15.9375 61.3906 16.0156 61.3906 16.1719L55.4531 13.9062C54.4375 13.5938 53.5 13.3594 52.4844 13.125C51.9375 12.9688 51.3906 12.8906 50.8438 12.7344C49.2812 12.4219 47.7188 12.1875 46.1562 12.0312H46C44.4375 11.875 42.9531 11.7969 41.3906 11.7969C40.2188 11.7969 39.125 11.875 38.0312 11.9531C36.4688 12.0312 34.9062 12.2656 33.3438 12.5L32.1719 12.7344C31.3906 12.8906 30.6094 13.0469 29.8281 13.2813C29.4375 13.3594 29.0469 13.5156 28.6562 13.5938C28.2656 13.75 27.875 13.9063 27.5625 14.0625C27.25 14.2188 27.0156 14.2969 26.7031 14.4531C26.625 14.4531 26.625 14.4531 26.5469 14.5313C26.3125 14.6875 26.0781 14.7656 25.8438 14.9219C25.7656 14.9219 25.6875 15 25.6875 15C25.375 15.1563 25.1406 15.3125 24.9062 15.3906C24.75 15.4688 24.5156 15.5469 24.3594 15.625C24.2812 15.7031 24.2031 15.7031 24.125 15.7813C23.8906 15.9375 23.6562 16.0156 23.4219 16.1719C23.1875 16.3281 22.9531 16.4063 22.7969 16.5625C22.6406 16.7188 22.4062 16.7969 22.25 16.9531C22.25 16.9531 22.1719 16.9531 22.1719 17.0312C22.0156 17.1094 21.8594 17.2656 21.7031 17.4219L21.625 17.5C21.4688 17.5781 21.3906 17.7344 21.2344 17.8125C21.1562 17.8125 21.1562 17.8906 21.0781 17.8906C20.9219 17.9688 20.8438 18.125 20.6875 18.2031C20.6875 18.2812 20.6094 18.2812 20.6094 18.2812L20.1406 18.75L20.0625 18.8281L19.5938 19.2969C19.5938 19.2969 19.5938 19.375 19.5156 19.375L19.125 19.7656C19.0469 19.8438 18.9688 19.8438 18.9688 19.9219L18.5 20.3906C18.5 20.4688 18.4219 20.4688 18.4219 20.5469L17.7969 21.1719L17.7188 21.25C17.3281 21.7188 16.8594 22.1094 16.3906 22.5C15.9219 22.8906 15.4531 23.2812 14.9062 23.6719C14.3594 24.0625 13.8906 24.375 13.3438 24.6875C12.7969 25 12.25 25.2344 11.7031 25.4688C11.1562 25.7031 10.6094 25.9375 10.0625 26.0938C8.96875 26.3281 7.875 26.7969 6.9375 26.875C6.9375 26.4844 6.70312 26.5625 6.46875 26.5625C6.23438 26.6406 6 26.6406 5.84375 26.7188C5.60938 26.7969 5.45312 26.875 5.21875 26.9531C4.98438 27.0312 4.82812 27.1094 4.59375 27.2656C4.4375 27.4219 4.20312 27.5 4.04688 27.6563C3.89062 27.8125 3.65625 27.9688 3.5 28.125C3.34375 28.2812 3.10938 28.4375 2.95312 28.5938C2.79687 28.75 2.64062 28.9062 2.48438 29.1406C2.32812 29.375 2.17188 29.5312 2.09375 29.7656C1.9375 29.9219 1.85938 30.1563 1.70312 30.3906C1.625 30.625 1.46875 30.8594 1.39063 31.0938L1.15625 31.7969C1.07813 32.0313 1.07812 32.1875 1 32.4219V32.5C0.921875 32.7344 0.921875 33.0469 0.921875 33.2031C1 33.125 1 33.2812 1 33.4375V33.75C1 33.9062 1.07812 34.0625 1.07812 34.2188C1.15625 34.375 1.15625 34.5312 1.23438 34.6875C1.3125 34.8438 1.39062 35 1.54688 35.1562C1.625 35.3125 1.78125 35.4688 1.85938 35.625C2.01562 35.7812 2.17188 35.9375 2.32812 36.0156C2.48438 36.1719 2.64062 36.3281 2.79687 36.4062C3.42188 36.9531 3.57812 37.1094 4.35938 37.5781C4.51562 37.6562 4.59375 37.7344 4.75 37.8125H4.82812V37.9688C4.82812 38.2031 4.90625 38.3594 4.98438 38.5938C5.0625 38.8281 5.14062 39.0625 5.21875 39.2188L5.45312 39.6875C5.45312 39.7656 5.53125 39.7656 5.53125 39.8438C5.60938 40.0781 5.76562 40.2344 5.84375 40.3906C6 40.5469 6.07812 40.7812 6.23438 40.9375L6.70312 41.4062L7.17188 41.875H7.25C7.40625 42.0312 7.5625 42.1094 7.71875 42.2656C7.875 42.4219 8.10938 42.5 8.26563 42.5781C8.42188 42.6562 8.65625 42.8125 8.89063 42.8906C9.04688 42.9688 9.20312 43.0469 9.4375 43.0469C9.4375 43.0469 9.51562 43.0469 9.51562 43.125C9.59375 43.125 9.75 43.2031 9.82812 43.2031C9.75 44.6094 9.75 45.9375 9.90625 46.4062C10.1406 46.9531 11.3125 45.3125 12.4063 43.5156C12.25 45.3125 12.1719 47.4219 12.4063 48.0469C12.7188 48.6719 14.2031 46.6406 15.6094 44.4531C33.8906 40.2344 50.6094 52.8906 52.4062 70.7812C52.0938 67.9688 48.6562 66.4062 47.0156 66.7969C46.2344 68.6719 44.9062 71.1719 42.7969 72.6562C42.9531 70.9375 42.875 69.2188 42.5625 67.5C42.0156 69.8438 40.9219 72.1094 39.3594 73.9844C36.9375 74.1406 34.4375 72.9688 33.1875 71.1719C33.1094 71.0938 33.0312 70.9375 32.9531 70.8594C32.875 70.7031 32.7969 70.4688 32.7187 70.3125C32.6406 70.1562 32.5625 69.9219 32.5625 69.7656V69.2188V68.8281C32.5625 68.6719 32.6406 68.4375 32.7187 68.2812C32.7969 68.125 32.7969 67.8906 32.875 67.7344C32.9531 67.5781 33.0312 67.3438 33.1875 67.1875C33.6562 65.9375 33.6562 64.9219 32.7969 64.375L32.3281 64.1406C32.25 64.1406 32.0938 64.0625 32.0156 64.0625C31.9375 64.0625 31.8594 63.9844 31.7812 63.9844C31.625 63.9062 31.3906 63.9062 31.2344 63.8281C31.0781 63.75 30.8437 63.75 30.6875 63.75C30.5312 63.75 30.2969 63.6719 30.1406 63.6719H29.75C29.5156 63.6719 29.3594 63.6719 29.2031 63.75C29.0469 63.75 28.8125 63.8281 28.6562 63.8281C28.5 63.9062 28.2656 63.9062 28.1094 63.9844C27.9531 64.0625 27.7969 64.1406 27.5625 64.2187L27.0938 64.4531C21.0781 68.3594 24.6719 77.5781 28.7344 80.2344C27.1719 80.5469 25.6094 80.8594 25.1406 81.1719L25.0625 81.25C26.1562 81.9531 27.3281 82.5 28.5781 82.9687C30.2187 83.5156 32.0156 83.9844 32.7969 84.2188C34.9062 84.6875 37.0938 84.8438 39.2812 84.6875C50.6875 83.9062 60.0625 75.1562 61.7812 63.75C61.8594 63.9844 61.8594 64.2187 61.9375 64.4531C62.0156 64.9219 62.0938 65.3906 62.1719 65.9375C62.25 66.1719 62.25 66.4062 62.25 66.6406V66.7188C62.25 66.9531 62.3281 67.1875 62.3281 67.4219C62.3281 67.7344 62.4062 67.9688 62.4062 68.2812V71.5625C62.4062 71.7969 62.3281 71.9531 62.3281 72.1875V72.4219C62.3281 72.6562 62.25 72.8906 62.25 73.2031C62.1719 73.4375 62.1719 73.6719 62.0937 73.9062V73.9844C62.0156 74.2187 62.0156 74.4531 61.9375 74.6875V74.7656C61.8594 75 61.8594 75.2344 61.7812 75.4688V75.5469L61.5469 76.25V76.3281C61.4688 76.5625 61.3906 76.875 61.3125 77.1094C61.2344 77.3437 61.1562 77.5781 61 77.8906C60.9219 78.125 60.8438 78.4375 60.6875 78.6719C60.6094 78.9062 60.4531 79.1406 60.375 79.4531C60.2969 79.6875 60.1406 79.9219 60.0625 80.1562C60.0625 80.2344 59.9844 80.3125 59.9844 80.3125C59.9844 80.3125 59.9844 80.3906 59.9062 80.3906C58.2656 83.75 55.7656 86.7188 52.6406 89.0625C52.4062 89.2188 52.25 89.375 52.0156 89.5312C51.9375 89.6094 51.8594 89.6094 51.8594 89.6875C51.7031 89.8438 51.4688 89.9219 51.3125 90.0781L51.3906 90.2344C51.7812 90.1562 52.0938 90.1562 52.4844 90.0781C53.1875 90 53.8125 89.8438 54.5156 89.6875C54.6719 89.6875 54.9062 89.6094 55.0625 89.5312C55.2187 89.5312 55.2969 89.4531 55.4531 89.4531C55.6094 89.4531 55.8438 89.375 56 89.375C56.1562 89.2969 56.3125 89.2969 56.4688 89.2187C59.0469 88.5937 61.5469 87.7344 63.9687 86.7188C59.8281 92.3438 54.3594 96.875 47.9531 99.8438C50.9219 99.6094 53.8906 99.1406 56.7812 98.2812C67.1719 95.2344 75.9219 88.2031 81.1562 78.75C80.0625 84.6875 77.7188 90.3906 74.2031 95.3906C76.7031 93.75 78.9688 91.7969 81.0781 89.6875C86.8594 83.6719 90.6875 75.9375 91.9375 67.7344C92.7969 71.7969 93.1094 76.0156 92.7188 80.1562C111.391 54.1406 94.2812 27.1875 87.0938 20.0781C87.0938 20 87.0156 20 87.0156 19.9219C87.0156 20.2344 87.0156 20.5469 86.9375 20.8594C86.8594 21.4844 86.7812 22.0312 86.7031 22.5781C86.5469 23.125 86.3906 23.75 86.2344 24.2969C86.0781 24.8438 85.8438 25.3906 85.6094 25.9375C85.375 26.4844 85.1406 27.0313 84.8281 27.5C84.5156 27.9688 84.2031 28.5156 83.8906 28.9844C83.5781 29.4531 83.1875 29.9219 82.7969 30.3906C82.4062 30.8594 82.0156 31.25 81.5469 31.7188C81.3125 31.9531 81.0781 32.1875 80.7656 32.3438C80.5312 32.5 80.375 32.6562 80.1406 32.8906C79.6719 33.2812 79.2031 33.5938 78.6562 33.9062C78.1875 34.2188 77.6406 34.5312 77.0938 34.7656L75.4531 35.4688C74.9062 35.7031 74.3594 35.8594 73.8125 36.0156C73.2656 36.1719 72.6406 36.3281 72.0938 36.4062C71.4688 36.4844 70.9219 36.5625 70.375 36.6406C69.9844 36.6406 69.5156 36.7188 69.125 36.7188C68.5 36.7188 67.9531 36.6406 67.4062 36.6406C66.7812 36.5625 66.2344 36.4844 65.6875 36.4062C65.0625 36.3281 64.5156 36.1719 63.9687 35.9375C64.5156 35.8594 65.1406 35.8594 65.6875 35.7031C66.3125 35.625 66.8594 35.4688 67.4062 35.3125C67.9531 35.1562 68.5781 35 69.0469 34.7656L70.6875 34.0625C71.2344 33.8281 71.7031 33.5156 72.25 33.2031C72.7188 32.8906 73.2656 32.5 73.7344 32.1875C74.2031 31.7969 74.6719 31.4063 75.0625 31.0156C75.5312 30.625 75.9219 30.1562 76.3125 29.7656C76.7031 29.2969 77.0938 28.8281 77.4062 28.3594C77.4844 28.2812 77.4844 28.2031 77.5625 28.125C77.7969 27.7344 78.1094 27.2656 78.3438 26.875C78.6562 26.3281 78.8906 25.8594 79.125 25.3125C79.3594 24.7656 79.5938 24.2188 79.75 23.6719L80.2188 22.0313C80.2969 21.4063 80.4531 20.8594 80.4531 20.3125C80.5312 19.6875 80.5312 19.1406 80.5312 18.5938C80.5312 18.2031 80.5312 17.7344 80.4531 17.3438C80.375 16.7188 80.2969 16.1719 80.2188 15.625C80.1406 15 79.9844 14.4531 79.8281 13.9062C79.6719 13.3594 79.4375 12.8125 79.2812 12.2656C79.0469 11.7188 78.8125 11.1719 78.5781 10.7031C78.2656 10.1562 78.0312 9.6875 77.7188 9.14062C77.4062 8.67188 77.0156 8.20312 76.7031 7.73437C76.3125 7.26562 75.9219 6.875 75.5312 6.40625C75.2969 6.17187 75.0625 5.9375 74.8281 5.78125C73.6562 4.84375 72.4844 4.0625 71.2344 3.28125C71.0781 3.20312 70.9219 3.125 70.6875 3.04688C69.6719 2.1875 68.8906 1.95312 68.1094 1.64062Z" fill="#DF234F"/>
</svg>
