<svg width="100" height="100" viewBox="0 0 100 100" fill="none" xmlns="http://www.w3.org/2000/svg">
<path d="M88.0297 23.6986L53.543 3.69473C51.3703 2.45723 48.5242 2.45723 46.3344 3.69473L11.5781 23.6986C9.33672 24.9885 7.8125 27.4127 7.8125 30.0057V69.9604C7.8125 72.5533 9.36875 74.9783 11.6109 76.2752L20.7742 81.5002C25.1703 83.6658 26.3883 83.6658 28.3883 83.6658C34.8992 83.6658 38.2805 79.7291 38.2805 72.8627V33.4174C38.2812 32.8603 38.6289 32.0314 38.0812 32.0314H33.6891C33.1328 32.0314 32.0312 32.8603 32.0312 33.4166V72.8619C32.0312 75.9057 29.2063 78.9346 24.0609 76.3619L14.5906 70.883C14.2609 70.7033 14.0625 70.3416 14.0625 69.9604V30.0057C14.0625 29.6291 14.4242 29.251 14.7586 29.058L49.4289 9.08848C49.5991 8.99805 49.7889 8.95077 49.9816 8.95077C50.1744 8.95077 50.3642 8.99805 50.5344 9.08848L84.8805 29.0533C85.2094 29.251 85.157 29.6174 85.157 30.0057V69.9604C85.157 70.3416 85.2289 70.7127 84.9047 70.8963L50.4258 90.8775C50.1305 91.0549 49.7461 91.0549 49.4219 90.8775L40.5805 85.6049C40.3141 85.4502 39.993 85.3947 39.7367 85.5377C37.2797 86.9307 36.8234 87.1158 34.5187 87.915C33.9508 88.1127 33.1133 88.4557 34.8375 89.4221L46.3984 96.2611C47.5021 96.8988 48.7543 97.2345 50.0289 97.2346C51.3085 97.2366 52.566 96.9008 53.6742 96.2611L88.0305 76.2752C90.2734 74.9689 91.407 72.5533 91.407 69.9604V30.0057C91.4062 27.4127 90.2727 24.9947 88.0297 23.6986ZM60.7242 63.6291C51.5625 63.6291 49.5453 61.1018 48.8727 56.5463C48.793 56.0557 48.3773 55.4689 47.8773 55.4689H43.4008C42.8469 55.4689 42.4008 56.1408 42.4008 56.6924C42.4008 62.5252 45.5727 69.5924 60.7242 69.5924C71.6914 69.5924 77.9805 65.3307 77.9805 57.7885C77.9805 50.3104 72.9281 48.3479 62.2914 46.94C51.5398 45.5189 50.4477 44.801 50.4477 42.2822C50.4477 40.2057 51.3727 37.4361 59.3336 37.4361C66.4461 37.4361 69.068 38.9627 70.1469 43.7572C70.2398 44.208 70.6516 44.5314 71.1164 44.5314H75.6117C75.8883 44.5314 76.1516 44.4197 76.3453 44.2221C76.5336 44.0096 76.632 43.7432 76.6078 43.4572C75.9102 35.2002 70.4258 31.3525 59.3328 31.3525C49.4641 31.3525 43.5781 35.5197 43.5781 42.5049C43.5781 50.0814 49.4352 52.1752 58.9078 53.1119C70.2398 54.2229 71.1211 55.8791 71.1211 58.108C71.1211 61.9799 68.0133 63.6291 60.7242 63.6291Z" fill="#83CD29"/>
</svg>
