<svg width="80" height="80" viewBox="0 0 80 80" fill="none" xmlns="http://www.w3.org/2000/svg">
<path d="M58.6307 57.57C59.1213 53.4869 58.9745 52.8875 62.0157 53.5494L62.7876 53.6169C65.1263 53.7232 68.1857 53.2407 69.9832 52.4057C73.8526 50.61 76.1463 47.6132 72.332 48.4C63.6295 50.1957 63.0313 47.2488 63.0313 47.2488C72.2207 33.6144 76.062 16.3063 72.7457 12.0694C63.702 0.513796 48.0476 5.97817 47.7857 6.11942L47.702 6.13505C45.9826 5.77817 44.0582 5.56505 41.8963 5.53005C37.9582 5.46505 34.9701 6.56255 32.7032 8.2813C32.7032 8.2813 4.77634 -3.22433 6.07571 22.7507C6.35196 28.2763 13.9957 64.5619 23.1132 53.6019C26.4457 49.5944 29.6657 46.2057 29.6657 46.2057C31.2645 47.2675 33.1795 47.81 35.187 47.615L35.3426 47.4825C35.2938 47.98 35.3151 48.4669 35.4045 49.0432C33.0563 51.6675 33.7463 52.1282 29.0507 53.0944C24.2995 54.0732 27.0907 55.8163 28.9126 56.2719C31.122 56.8244 36.2326 57.6069 39.6863 52.7732L39.5488 53.3244C40.4701 54.0619 40.4082 58.6225 40.5382 61.8807C40.6688 65.1394 40.887 68.18 41.5513 69.9732C42.2157 71.7657 42.9995 76.3832 49.1707 75.0607C54.3282 73.9582 58.2713 72.3675 58.6307 57.57Z" fill="black"/>
<path d="M47.1614 78.285C44.4321 78.285 42.6546 77.2294 41.5752 76.21C39.9458 74.6725 39.2996 72.6919 38.9133 71.5088L38.7464 71.015C37.9689 68.9163 37.7052 65.8944 37.5489 62.0031C37.5252 61.4188 37.5089 60.8169 37.4908 60.1788C37.4777 59.7119 37.4614 59.1263 37.4377 58.5138C36.4544 58.9826 35.4106 59.3124 34.3364 59.4938C32.4121 59.8225 30.3433 59.7163 28.1864 59.1769C26.6646 58.7963 25.0833 58.0075 24.1821 56.7894C21.5552 59.09 19.0496 58.7781 17.6846 58.3225C15.2764 57.5194 13.1214 55.2625 11.0958 51.4244C9.65269 48.69 8.25707 45.1275 6.94707 40.835C4.66582 33.36 3.21644 25.4869 3.08769 22.9019C2.68269 14.8113 4.86082 9.02501 9.56019 5.70563C16.9733 0.46938 28.2052 3.54876 32.3002 4.94688C35.0514 3.28876 38.2883 2.48188 41.9458 2.54001C43.9102 2.57188 45.7808 2.74438 47.5183 3.05438C49.3308 2.48438 52.9108 1.66626 57.0089 1.71751C64.5596 1.80751 70.8164 4.75001 75.1021 10.2269C78.1608 14.1344 76.6483 22.34 75.4752 26.8838C73.8239 33.275 70.9308 40.0725 67.3771 45.99C68.3421 45.9969 69.7402 45.8813 71.7277 45.4706C75.6489 44.6613 76.7958 46.7638 77.1071 47.705C78.3539 51.4813 72.9339 54.335 71.2433 55.12C69.0771 56.1256 65.5452 56.7381 62.6527 56.6056L62.5264 56.5975L61.7664 56.5306L61.6914 57.1644L61.6189 57.7838C61.4246 65.2831 60.3533 70.0325 58.1489 73.1706C55.8383 76.4606 52.6271 77.3825 49.7983 77.9888C48.8333 78.195 47.9564 78.285 47.1614 78.285ZM41.4177 50.9906C43.1796 52.4006 43.3339 55.0538 43.4721 60.0119C43.4896 60.6306 43.5058 61.2163 43.5277 61.7631C43.5939 63.4194 43.7496 67.2975 44.3571 68.9363C44.4427 69.1681 44.5196 69.4031 44.6008 69.6525C45.2777 71.725 45.6171 72.7644 48.5439 72.1388C51.0008 71.6119 52.2639 71.1394 53.2527 69.7319C54.6896 67.6856 55.4933 63.5694 55.6408 57.4975L58.6302 57.57L55.6614 57.2138L55.7489 56.4725C56.0333 54.0288 56.2383 52.2638 57.8714 51.0963C59.1821 50.16 60.6752 50.2506 61.8646 50.465C60.5577 49.4775 60.1964 48.3194 60.1002 47.8444L59.8508 46.6163L60.5514 45.5769C64.5871 39.5894 67.9146 32.2306 69.6821 25.3869C71.4983 18.355 70.9446 14.6206 70.3908 13.9144C63.0602 4.54751 50.3483 8.41501 49.0208 8.85376L48.7964 8.97501L47.6714 9.18438L47.0952 9.06501C45.5064 8.73501 43.7414 8.55251 41.8496 8.52188C38.8771 8.47188 36.4789 9.17438 34.5127 10.6663L33.1483 11.7006L31.5652 11.0488C28.1827 9.66563 18.2477 6.88501 13.0052 10.5981C10.0952 12.6594 8.76957 16.6981 9.06457 22.6025C9.16207 24.5519 10.4864 31.9313 12.6714 39.0881C15.6908 48.9788 18.4346 52.2644 19.5802 52.6463C19.7802 52.7138 20.2989 52.3106 20.8152 51.6906C22.9677 49.1102 25.1966 46.5945 27.4989 44.1469L29.2302 42.325L31.3233 43.7156C32.1671 44.2763 33.0977 44.5944 34.0533 44.6544L39.0452 40.3969L38.3221 47.7769C38.3058 47.9425 38.2977 48.1681 38.3627 48.5869L38.5802 49.9856L37.6364 51.0406L37.5277 51.1631L40.2702 52.4288L41.4177 50.9906Z" fill="black"/>
<path d="M72.3318 48.4C63.6287 50.1956 63.0306 47.2488 63.0306 47.2488C72.22 33.6138 76.0612 16.305 72.7462 12.0694C63.7025 0.514396 48.0468 5.97877 47.7856 6.12065L47.7012 6.13565C45.9818 5.77877 44.0575 5.56627 41.8943 5.53127C37.9562 5.4669 34.9693 6.56377 32.7025 8.28252C32.7025 8.28252 4.77497 -3.22248 6.07372 22.7519C6.34997 28.2781 13.9937 64.5638 23.1112 53.6038C26.4437 49.5963 29.6631 46.2075 29.6631 46.2075C31.2625 47.2694 33.1768 47.8119 35.1837 47.6169L35.34 47.4844C35.2912 47.9819 35.3137 48.4688 35.4025 49.045C33.0537 51.6694 33.7437 52.13 29.0481 53.0963C24.2968 54.075 27.0881 55.8181 28.9106 56.2738C31.1193 56.8263 36.2306 57.6088 39.6837 52.775L39.5456 53.3263C40.4662 54.0638 41.1125 58.1213 41.0043 61.7994C40.8956 65.4775 40.8231 68.0031 41.5487 69.9756C42.2737 71.9482 42.9962 76.3856 49.1687 75.0631C54.3262 73.9581 56.9987 71.0938 57.3712 66.3163C57.635 62.9194 58.2318 63.4219 58.27 60.385L58.7493 58.9475C59.3018 54.3431 58.8368 52.8582 62.015 53.5488L62.7868 53.6163C65.1256 53.7225 68.1862 53.24 69.9831 52.405C73.8518 50.6106 76.1462 47.6131 72.3318 48.4Z" fill="#336791"/>
<path d="M47.473 76.4419C42.328 76.4419 40.698 72.3675 40.0311 70.7013C39.0549 68.2594 38.8442 58.7831 39.0617 51.0119C39.065 50.8808 39.0941 50.7517 39.1474 50.632C39.2008 50.5122 39.2773 50.4042 39.3726 50.3142C39.4679 50.2241 39.58 50.1538 39.7026 50.1073C39.8251 50.0608 39.9557 50.039 40.0867 50.0431C40.2176 50.0467 40.3465 50.076 40.4661 50.1294C40.5856 50.1829 40.6935 50.2593 40.7835 50.3545C40.8734 50.4496 40.9438 50.5616 40.9905 50.6839C41.0371 50.8063 41.0592 50.9366 41.0555 51.0675C40.8049 60.0306 41.1605 68.1531 41.883 69.9606C43.0105 72.7788 44.7205 75.2438 49.5549 74.2081C54.1442 73.2238 55.863 71.4838 56.6286 67.0456C57.2161 63.64 58.378 53.9513 58.5211 52.0394C58.5307 51.9087 58.5659 51.7812 58.6249 51.6642C58.6838 51.5472 58.7652 51.443 58.8645 51.3576C58.9638 51.2721 59.079 51.2071 59.2035 51.1662C59.3279 51.1253 59.4592 51.1094 59.5899 51.1194C59.8535 51.1394 60.0984 51.2631 60.2709 51.4635C60.4434 51.6638 60.5293 51.9245 60.5099 52.1881C60.3605 54.1788 59.2042 63.8488 58.5942 67.385C57.6905 72.6269 55.3536 75.0044 49.973 76.1581C49.0586 76.3538 48.228 76.4413 47.473 76.4419ZM19.5755 56.5413C19.1258 56.5397 18.6792 56.4659 18.253 56.3225C14.9111 55.2075 11.728 49.765 8.79173 40.1444C6.55673 32.8213 5.14048 25.1775 5.0161 22.6931C4.64798 15.3281 6.54423 10.1175 10.6536 7.20687C18.783 1.44687 32.4586 6.93187 33.0367 7.16812C33.2816 7.26816 33.4768 7.46139 33.5792 7.7053C33.6817 7.94922 33.683 8.22384 33.583 8.46875C33.4829 8.71366 33.2897 8.9088 33.0458 9.01124C32.8019 9.11368 32.5273 9.11504 32.2824 9.015C32.1505 8.96125 19.0367 3.7075 11.8024 8.83687C8.2886 11.3281 6.67548 15.9569 7.00735 22.5938C7.11173 24.6869 8.43485 32.1469 10.6986 39.5619C13.3199 48.1506 16.303 53.57 18.8836 54.4306C19.2886 54.5656 20.5211 54.9763 22.283 52.8575C24.3376 50.3899 26.4693 47.9875 28.6749 45.6538C28.8594 45.4697 29.1087 45.3652 29.3693 45.3625C29.63 45.3599 29.8813 45.4595 30.0695 45.6398C30.2577 45.8202 30.3678 46.067 30.3763 46.3275C30.3847 46.5881 30.2909 46.8415 30.1149 47.0338C30.0849 47.065 27.0855 50.2006 23.8167 54.1331C22.2686 55.995 20.7849 56.5413 19.5755 56.5413ZM62.9686 48.1381C62.7878 48.1379 62.6105 48.0885 62.4556 47.9953C62.3007 47.9021 62.174 47.7685 62.0891 47.6088C62.0043 47.4492 61.9644 47.2695 61.9738 47.0889C61.9832 46.9084 62.0414 46.7338 62.1424 46.5838C71.4317 32.7994 74.6924 16.1438 71.8999 12.575C68.3849 8.08375 63.4217 5.73812 57.1474 5.6025C52.5017 5.5025 48.8092 6.68875 48.2055 6.89562L48.0536 6.9575C47.4467 7.14812 46.9811 6.81562 46.8055 6.42687C46.7053 6.20414 46.6902 5.95247 46.7628 5.71932C46.8355 5.48618 46.9909 5.28767 47.1999 5.16125C47.2286 5.14437 47.3199 5.10562 47.468 5.05125L47.4549 5.055L47.468 5.05062C48.4936 4.675 52.2424 3.55062 56.8855 3.60375C63.828 3.6775 69.563 6.35437 73.4692 11.3462C75.3174 13.7081 75.3217 19.1494 73.4811 26.2756C71.6049 33.5413 68.0742 41.3494 63.7955 47.6988C63.6042 47.9844 63.2892 48.1381 62.9686 48.1381ZM63.4436 54.5194C61.8574 54.5194 60.4355 54.2956 59.5842 53.7856C58.7092 53.2613 58.5424 52.5488 58.5205 52.1706C58.2817 47.9769 60.5955 47.2469 61.7755 46.9138C61.6111 46.665 61.3774 46.3725 61.1355 46.0706C60.4474 45.2106 59.5049 44.0331 58.7786 42.2719C58.6649 41.9969 58.3086 41.3575 57.8961 40.6169C55.6592 36.6056 51.0049 28.2588 53.9949 23.9844C55.3786 22.0063 58.1342 21.2275 62.1942 21.6619C60.9999 18.0231 55.3124 6.64062 41.8167 6.41937C37.758 6.35187 34.4292 7.6 31.928 10.1256C26.328 15.7812 26.5305 26.0144 26.5336 26.1169C26.5371 26.2478 26.5147 26.3781 26.4678 26.5004C26.4209 26.6226 26.3503 26.7345 26.2602 26.8295C26.1701 26.9245 26.0621 27.0008 25.9425 27.0541C25.8228 27.1074 25.6939 27.1366 25.563 27.14C25.4321 27.1434 25.3018 27.1211 25.1795 27.0742C25.0572 27.0273 24.9454 26.9567 24.8504 26.8666C24.7554 26.7765 24.6791 26.6685 24.6258 26.5489C24.5725 26.4292 24.5433 26.3003 24.5399 26.1694C24.5274 25.715 24.3186 14.9763 30.5111 8.72187C33.4092 5.795 37.2242 4.35 41.8499 4.42562C50.4836 4.5675 56.0411 8.95687 59.1824 12.6137C62.6067 16.5994 64.2855 20.9956 64.4236 22.4631C64.5267 23.5544 63.7436 23.7725 63.5855 23.805L63.2255 23.8131C59.2411 23.175 56.6849 23.6181 55.628 25.1281C53.3536 28.3788 57.7567 36.2744 59.6367 39.6463C60.1167 40.5063 60.463 41.1281 60.6217 41.5119C61.2392 43.0094 62.0449 44.0156 62.6917 44.8244C63.2611 45.5356 63.7542 46.1525 63.9305 46.8763C64.0124 47.02 65.1742 48.7388 72.0686 47.3156C73.7967 46.9594 74.833 47.2638 75.1499 48.2219C75.773 50.1063 72.2767 52.3044 70.3411 53.2031C68.6067 54.0094 65.8386 54.5194 63.4436 54.5194ZM60.5086 52.0063C60.7274 52.2269 61.8217 52.6075 64.088 52.51C66.103 52.4238 68.228 51.9856 69.503 51.3938C71.1336 50.6363 72.2224 49.7894 72.7861 49.2113L72.4736 49.2688C68.0655 50.1788 64.9474 50.0575 63.2061 48.9081C63.0891 48.8308 62.9765 48.7471 62.8686 48.6575C62.6799 48.7319 62.5055 48.7806 62.3811 48.8156C61.3936 49.0925 60.3724 49.3794 60.5086 52.0063ZM32.0324 57.5781C30.9374 57.5781 29.7849 57.4288 28.608 57.1344C27.3886 56.8294 25.333 55.9113 25.3642 54.4031C25.3999 52.7113 27.8605 52.2038 28.7867 52.0131C32.133 51.3238 32.3511 51.0475 33.3967 49.7194C33.7017 49.3325 34.0811 48.8506 34.5986 48.2731C35.3667 47.4131 36.2061 46.9775 37.0936 46.9775C37.7117 46.9775 38.2186 47.1869 38.5536 47.3263C39.6211 47.7688 40.5117 48.8388 40.878 50.1181C41.2086 51.2725 41.0505 52.3838 40.4342 53.2469C38.4111 56.08 35.5055 57.5781 32.0324 57.5781ZM27.5186 54.4888C27.8192 54.7213 28.4217 55.0319 29.0924 55.1994C30.1117 55.4544 31.1005 55.5838 32.033 55.5838C34.8742 55.5838 37.1555 54.4075 38.8124 52.0875C39.158 51.6038 39.0542 50.9894 38.9617 50.6663C38.768 49.9894 38.2867 49.3738 37.7911 49.1681C37.5224 49.0569 37.2992 48.9719 37.0942 48.9719C36.9842 48.9719 36.6492 48.9719 36.0855 49.6025C35.6965 50.04 35.3225 50.4907 34.9642 50.9538C33.6617 52.6075 33.0649 53.1688 29.1899 53.9669C28.2442 54.1606 27.7592 54.3581 27.5186 54.4888ZM35.1867 49.8888C34.9487 49.8884 34.7186 49.8029 34.538 49.6477C34.3575 49.4925 34.2385 49.2778 34.2024 49.0425C34.1776 48.877 34.1609 48.7103 34.1524 48.5431C31.6124 48.4956 29.1617 47.4056 27.3011 45.4644C24.9486 43.01 23.878 39.6094 24.3642 36.135C24.8924 32.3619 24.6949 29.0313 24.5886 27.2419C24.5592 26.7444 24.538 26.385 24.5392 26.1363C24.5411 25.8206 24.5474 24.9838 27.3449 23.5656C28.3399 23.0613 30.3349 22.1813 32.5142 21.9556C36.1249 21.5825 38.5049 23.1906 39.2174 26.4844C41.1405 35.3769 39.3699 39.31 38.0767 42.1825C37.8361 42.7175 37.6086 43.2225 37.4267 43.7119L37.2661 44.1431C36.583 45.975 35.9924 47.5575 36.1736 48.7394C36.1935 48.8688 36.1877 49.0009 36.1565 49.1281C36.1254 49.2553 36.0695 49.3751 35.992 49.4807C35.9145 49.5863 35.817 49.6755 35.705 49.7434C35.593 49.8113 35.4687 49.8564 35.3392 49.8763L35.1867 49.8888ZM26.5399 26.4125L26.5786 27.1244C26.6886 28.9831 26.8936 32.4419 26.3386 36.4119C25.938 39.2775 26.813 42.0744 28.7405 44.0844C30.2636 45.6731 32.268 46.55 34.328 46.55H34.3705C34.6011 45.5781 34.9842 44.5519 35.3967 43.4463L35.5561 43.0175C35.7617 42.465 36.0024 41.93 36.2574 41.3638C37.5017 38.5988 39.0511 35.1569 37.2667 26.9062C36.9136 25.2719 36.0567 24.3263 34.6486 24.0144C31.7561 23.3756 27.4455 25.5513 26.5399 26.4125ZM32.5586 25.9894C32.5086 26.3419 33.2042 27.2831 34.1117 27.4088C35.0174 27.5356 35.7924 26.7994 35.8417 26.4469C35.8911 26.0944 35.1961 25.7056 34.2886 25.5794C33.3817 25.4531 32.6067 25.6369 32.5586 25.9894ZM34.3199 27.7556L34.0655 27.7381C33.503 27.66 32.9342 27.3056 32.5449 26.7894C32.408 26.6081 32.1849 26.2569 32.2292 25.9431C32.2924 25.4831 32.8536 25.2075 33.7292 25.2075C33.9249 25.2075 34.1286 25.2219 34.3336 25.2506C34.8124 25.3169 35.2567 25.455 35.5849 25.6381C36.1536 25.9556 36.1955 26.31 36.1699 26.4931C36.0999 27.0013 35.2917 27.7556 34.3199 27.7556ZM32.8892 26.0481C32.9174 26.2656 33.4561 26.9831 34.1574 27.08L34.3205 27.0913C34.968 27.0913 35.4517 26.5819 35.5086 26.415C35.4486 26.3013 35.0324 26.0187 34.243 25.9088C34.073 25.8844 33.9016 25.872 33.7299 25.8719C33.2224 25.8719 32.953 25.9862 32.8892 26.0481ZM60.1424 25.27C60.1917 25.6225 59.4967 26.5637 58.5899 26.69C57.6836 26.8162 56.908 26.0806 56.858 25.7281C56.8105 25.3756 57.5055 24.9863 58.4117 24.8606C59.318 24.7338 60.0924 24.9181 60.1424 25.27ZM58.3805 26.87C57.508 26.87 56.7549 26.1913 56.693 25.7506C56.6211 25.2219 57.4917 24.82 58.388 24.6956C58.5855 24.6681 58.7811 24.6544 58.9692 24.6544C59.743 24.6544 60.2555 24.8813 60.3067 25.2475C60.3399 25.4844 60.158 25.85 59.8449 26.18C59.638 26.3969 59.2036 26.7725 58.6117 26.8544L58.3805 26.87ZM58.9699 24.9869C58.7974 24.9869 58.6174 25 58.4349 25.025C57.5342 25.1506 56.9967 25.5119 57.023 25.7056C57.053 25.9188 57.628 26.5381 58.3811 26.5381L58.5667 26.525C59.0586 26.4569 59.428 26.1356 59.6042 25.9506C59.8811 25.66 59.9911 25.3863 59.978 25.2931C59.9605 25.1694 59.628 24.9869 58.9699 24.9869ZM61.448 45.5138C61.2673 45.5139 61.09 45.4648 60.935 45.3719C60.7801 45.279 60.6533 45.1457 60.5683 44.9863C60.4833 44.8268 60.4432 44.6473 60.4524 44.4668C60.4616 44.2864 60.5197 44.1118 60.6205 43.9619C62.7442 40.79 62.3555 37.5556 61.9799 34.4275C61.8192 33.095 61.6542 31.7169 61.6967 30.3944C61.7405 29.0338 61.9136 27.9113 62.0805 26.8256C62.2786 25.5394 62.4661 24.3244 62.3886 22.8819C62.3815 22.7511 62.4003 22.6203 62.4438 22.4968C62.4873 22.3733 62.5547 22.2596 62.6422 22.1621C62.7297 22.0647 62.8355 21.9854 62.9536 21.9289C63.0717 21.8723 63.1997 21.8396 63.3305 21.8325C63.4612 21.8254 63.5921 21.8442 63.7156 21.8877C63.8391 21.9312 63.9528 21.9986 64.0502 22.0861C64.1477 22.1736 64.2269 22.2794 64.2835 22.3975C64.3401 22.5156 64.3728 22.6436 64.3799 22.7744C64.4686 24.4231 64.2567 25.7981 64.0517 27.1287C63.8936 28.1556 63.7299 29.2175 63.6905 30.4581C63.6524 31.6294 63.8017 32.8731 63.9599 34.1894C64.3599 37.5156 64.813 41.2856 62.278 45.0713C62.1867 45.2076 62.0632 45.3193 61.9184 45.3965C61.7736 45.4737 61.612 45.5139 61.448 45.5138Z" fill="white"/>
</svg>
