<svg width="80" height="80" viewBox="0 0 80 80" fill="none" xmlns="http://www.w3.org/2000/svg">
<path d="M67.0912 1.25748L62.7699 1.52686L63.1068 10.5125C63.1243 11.0094 62.5512 11.2994 62.1606 10.9912L59.2668 8.70998L55.8387 11.3112C55.7504 11.3783 55.6449 11.4188 55.5344 11.428C55.424 11.4373 55.3132 11.4149 55.215 11.3635C55.1168 11.3121 55.0352 11.2338 54.9799 11.1378C54.9245 11.0418 54.8977 10.932 54.9024 10.8212L55.2881 1.99436L12.4206 4.67498C11.4008 4.73852 10.4464 5.19817 9.76089 5.9558C9.07543 6.71343 8.7133 7.70901 8.75181 8.72998L11.1643 73.0037C11.2011 73.9858 11.6059 74.918 12.2983 75.6154C12.9907 76.3128 13.9201 76.7242 14.9018 76.7681L67.1593 79.1144C67.6876 79.1377 68.2151 79.0539 68.7101 78.8681C69.2052 78.6823 69.6575 78.3983 70.0399 78.0331C70.4225 77.668 70.7269 77.229 70.9349 76.7428C71.1429 76.2565 71.2501 75.7332 71.2499 75.2044V5.16498C71.2502 4.63019 71.1408 4.10102 70.9285 3.61018C70.7162 3.11933 70.4055 2.67725 70.0156 2.31123C69.626 1.94501 69.1656 1.66256 68.6626 1.48131C68.1596 1.30007 67.6248 1.22389 67.0912 1.25748ZM41.1787 14.4994C51.3712 14.4994 56.9374 19.9512 56.9374 30.3237C55.5599 31.3944 45.2999 32.1237 45.2999 30.6006C45.5162 24.7881 42.9143 24.5337 41.4687 24.5337C40.0949 24.5337 37.7818 24.9475 37.7818 28.0612C37.7818 35.7412 57.5881 35.3269 57.5881 50.8262C57.5881 59.545 50.5037 64.3606 41.4687 64.3606C32.1437 64.3606 23.9956 60.5881 24.9156 47.5087C25.2768 45.9731 37.1312 46.3381 37.1312 47.5087C36.9874 52.9056 38.2156 54.4931 41.3231 54.4931C43.7087 54.4931 44.7937 53.1787 44.7937 50.9644C44.7937 43.0762 25.2768 42.8 25.2768 28.3387C25.2768 20.0356 30.9881 14.4994 41.1793 14.4994H41.1787Z" fill="#FF4785"/>
</svg>
