<svg width="16" height="20" viewBox="0 0 16 20" fill="none" xmlns="http://www.w3.org/2000/svg">
<path d="M4.24083 17.1795C4.68967 18.8057 6.17973 20 7.94872 20H12.0513C14.1755 20 15.8974 18.278 15.8974 16.1538V7.94872C15.8974 6.17973 14.7032 4.68967 13.0769 4.24083V12.0513C13.0769 14.8835 10.7809 17.1795 7.94872 17.1795H4.24083Z" fill="#2D3134"/>
<path d="M3.84615 0C1.72198 0 0 1.72198 0 3.84615V12.0513C0 14.1755 1.72198 15.8974 3.84615 15.8974H7.94872C10.0729 15.8974 11.7949 14.1755 11.7949 12.0513V3.84615C11.7949 1.72198 10.0729 0 7.94872 0H3.84615Z" fill="#2D3134"/>
</svg>
