<svg width="20" height="20" viewBox="0 0 20 20" fill="none" xmlns="http://www.w3.org/2000/svg">
<path fill-rule="evenodd" clip-rule="evenodd" d="M1.41961 0C0.635579 0 0 0.635578 0 1.4196V18.5803C0 19.3644 0.63558 19.9999 1.41961 19.9999H18.5804C19.3644 19.9999 20 19.3644 20 18.5803V1.41961C20 0.635579 19.3644 0 18.5804 0H1.41961ZM4.48908 6.21101C5.44729 6.21101 6.22408 5.43423 6.22408 4.47601C6.22408 3.5178 5.44729 2.74102 4.48908 2.74102C3.53087 2.74102 2.75409 3.5178 2.75409 4.47601C2.75409 5.43423 3.53087 6.21101 4.48908 6.21101ZM7.81304 7.49322H10.6885V8.81048C10.6885 8.81048 11.4688 7.24989 13.5918 7.24989C15.4857 7.24989 17.0546 8.18285 17.0546 11.0266V17.0232H14.0748V11.7532C14.0748 10.0757 13.1792 9.89119 12.4967 9.89119C11.0804 9.89119 10.8379 11.1129 10.8379 11.9721V17.0232H7.81304V7.49322ZM6.00152 7.49323H2.97664V17.0233H6.00152V7.49323Z" fill="#2D3134"/>
</svg>
